<svg width="600" height="367" viewBox="0 0 600 367" fill="none" xmlns="http://www.w3.org/2000/svg">
  <rect width="600" height="367" rx="36" fill="url(#bg)"/>
  <circle cx="90" cy="84" r="48" fill="#4FD1C5" fill-opacity="0.18"/>
  <circle cx="522" cy="288" r="62" fill="#F6AD55" fill-opacity="0.16"/>
  <rect x="194" y="44" width="212" height="279" rx="28" fill="#091A1D" stroke="#7EE7DA" stroke-width="4"/>
  <rect x="214" y="74" width="172" height="219" rx="20" fill="#10292D"/>
  <rect x="252" y="56" width="96" height="8" rx="4" fill="#D9FFF8" fill-opacity="0.65"/>
  <rect x="236" y="106" width="128" height="18" rx="9" fill="#0E3A41"/>
  <rect x="236" y="134" width="96" height="12" rx="6" fill="#D9FFF8" fill-opacity="0.85"/>
  <rect x="236" y="154" width="112" height="12" rx="6" fill="#D9FFF8" fill-opacity="0.45"/>
  <rect x="236" y="184" width="64" height="64" rx="18" fill="#163C43"/>
  <path d="M257 218C257 203.641 268.641 192 283 192C297.359 192 309 203.641 309 218" stroke="#7EE7DA" stroke-width="8" stroke-linecap="round"/>
  <circle cx="283" cy="218" r="8" fill="#F6AD55"/>
  <rect x="322" y="188" width="42" height="16" rx="8" fill="#4FD1C5"/>
  <rect x="322" y="214" width="54" height="10" rx="5" fill="#D9FFF8" fill-opacity="0.8"/>
  <rect x="322" y="232" width="44" height="10" rx="5" fill="#D9FFF8" fill-opacity="0.45"/>
  <rect x="70" y="198" width="104" height="44" rx="22" fill="#123138" stroke="#7EE7DA" stroke-opacity="0.5"/>
  <text x="122" y="225" text-anchor="middle" fill="#E6FFFB" font-family="Arial, sans-serif" font-size="18" font-weight="700">AI Plans</text>
  <rect x="424" y="88" width="110" height="44" rx="22" fill="#3D2A17" stroke="#F6AD55" stroke-opacity="0.55"/>
  <text x="479" y="115" text-anchor="middle" fill="#FFF3E0" font-family="Arial, sans-serif" font-size="18" font-weight="700">Beta</text>
  <rect x="410" y="198" width="134" height="44" rx="22" fill="#123138" stroke="#7EE7DA" stroke-opacity="0.5"/>
  <text x="477" y="225" text-anchor="middle" fill="#E6FFFB" font-family="Arial, sans-serif" font-size="18" font-weight="700">Track Workouts</text>
  <text x="58" y="310" fill="#F7FAFC" font-family="Arial, sans-serif" font-size="34" font-weight="700">AI Fitness App</text>
  <text x="58" y="336" fill="#CFFAFE" font-family="Arial, sans-serif" font-size="18">Expo, Clerk, OpenAI, NativeWind</text>
  <defs>
    <linearGradient id="bg" x1="42" y1="20" x2="554" y2="367" gradientUnits="userSpaceOnUse">
      <stop stop-color="#0F2B31"/>
      <stop offset="1" stop-color="#08171A"/>
    </linearGradient>
  </defs>
</svg>